Poster: 
http://www.tvdar.com/wp-content/uploads/2012/09/ParaNorman.jpg

Info:

Format : AVI
Format/Info : Audio Video Interleave
File size : 1.40 GiB
Duration : 1h 32mn
Overall bit rate : 2 168 Kbps
Writing application : VirtualDubMod 1.5.10.2 (build 2540/release)
Writing library : VirtualDubMod build 2540/release

Video
ID : 0
Format : MPEG-4 Visual
Format profile : Advanced Simple@L5
Format settings, BVOP : 2
Format settings, QPel : No
Format settings, GMC : No warppoints
Format settings, Matrix : Default (H.263)
Muxing mode : Packed bitstream
Codec ID : XVID
Codec ID/Hint : XviD
Duration : 1h 32mn
Bit rate : 1 967 Kbps
Width : 720 pixels
Height : 304 pixels
Display aspect ratio : 2.35:1
Frame rate : 23.976 fps
Color space : YUV
Chroma subsampling : 4:2:0
Bit depth : 8 bits
Scan type : Progressive
Compression mode : Lossy
Bits/(Pixel*Frame) : 0.375
Stream size : 1.27 GiB (91%)
Writing library : XviD 64

Audio
ID : 1
Format : AC-3
Format/Info : Audio Coding 3
Mode extension : CM (complete main)
Format settings, Endianness : Big
Codec ID : 2000
Duration : 1h 32mn
Bit rate mode : Constant
Bit rate : 192 Kbps
Channel(s) : 2 channels
Channel positions : Front: L R
Sampling rate : 48.0 KHz
Bit depth : 16 bits
Compression mode : Lossy
Stream size : 127 MiB (9%)
Alignment : Split accross interleaves
Interleave, duration : 42 ms (1.00 video frame)
Interleave, preload duration : 500 ms

 
http://www.imdb.com/title/tt1623288/

Ratings: 7.4/10 from 8,650 users Metascore: 72/100
Reviews: 88 user | 207 critic | 33 from Metacritic.com

A misunderstood boy takes on ghosts, zombies and grown-ups to save his town from a centuries-old curse.

Directors:
Chris Butler, Sam Fell
Writer:
Chris Butler
Stars:
Kodi Smit-McPhee, Anna Kendrick and Christopher Mintz-Plasse | See full cast and crew

Source Used


720p Toothfairy/iTuNES...........Thanks


Enjoy

Screens:
 
http://imgr.us/images/0xc958zqqrq8n9r4176s.png 
http://imgr.us/images/dadxwx87h9sv9b1qs35.png 
http://imgr.us/images/my10iq9iql6nih7067gk.png